<?xml version="1.0" encoding="utf-8"?>
<!-- Generator: Adobe Illustrator 24.1.0, SVG Export Plug-In . SVG Version: 6.00 Build 0)  -->
<svg version="1.1" id="Proximo" xmlns="http://www.w3.org/2000/svg" xmlns:xlink="http://www.w3.org/1999/xlink" x="0px" y="0px"
	 viewBox="0 0 64 64" style="enable-background:new 0 0 64 64;" xml:space="preserve">
<style type="text/css">
	.st0{fill:#14C398;}
</style>
<g id="XMLID_863_">
	<g id="XMLID_808_">
		<g id="XMLID_809_">
			<path class="st0" d="M52,64c-0.7,0-1.3-0.3-1.7-0.9l-7.4-11.9H6c-3.3,0-6-2.9-6-6.4V6.4C0,2.9,2.7,0,6,0h52c3.3,0,6,2.9,6,6.4
				v38.4c0,3.5-2.7,6.4-6,6.4h-2.3l-1.7,11c-0.1,0.9-0.8,1.6-1.6,1.7C52.3,64,52.1,64,52,64z M6,4.3c-1.1,0-2,1-2,2.1v38.4
				c0,1.2,0.9,2.1,2,2.1h38c0.7,0,1.3,0.4,1.7,0.9l5.2,8.3l1.2-7.5c0.2-1,1-1.8,2-1.8h4c1.1,0,2-1,2-2.1V6.4c0-1.2-0.9-2.1-2-2.1H6z
				"/>
		</g>
		<g id="XMLID_811_">
			<path class="st0" d="M50,17.1H14c-1.1,0-2-1-2-2.1s0.9-2.1,2-2.1h36c1.1,0,2,1,2,2.1S51.1,17.1,50,17.1z"/>
		</g>
		<g id="XMLID_812_">
			<path class="st0" d="M50,27.7H14c-1.1,0-2-1-2-2.1c0-1.2,0.9-2.1,2-2.1h36c1.1,0,2,1,2,2.1C52,26.8,51.1,27.7,50,27.7z"/>
		</g>
		<g id="XMLID_813_">
			<path class="st0" d="M50,38.4H14c-1.1,0-2-1-2-2.1s0.9-2.1,2-2.1h36c1.1,0,2,1,2,2.1S51.1,38.4,50,38.4z"/>
		</g>
	</g>
</g>
</svg>
