<?xml version="1.0" encoding="utf-8"?>
<!-- Generator: Adobe Illustrator 24.1.0, SVG Export Plug-In . SVG Version: 6.00 Build 0)  -->
<svg version="1.1" id="Layer_1" xmlns="http://www.w3.org/2000/svg" xmlns:xlink="http://www.w3.org/1999/xlink" x="0px" y="0px"
	 viewBox="0 0 30 30" style="enable-background:new 0 0 30 30;" xml:space="preserve">
<style type="text/css">
	.st0{fill:#FFBF60;}
</style>
<g>
	<g>
		<path class="st0" d="M23.5,17c-3.6,0-6.5,2.9-6.5,6.5s2.9,6.5,6.5,6.5s6.5-2.9,6.5-6.5S27.1,17,23.5,17z M23.5,29
			c-3,0-5.5-2.5-5.5-5.5s2.5-5.5,5.5-5.5s5.5,2.5,5.5,5.5S26.5,29,23.5,29z M15.5,24.4l-8.6,1.5L4,4.9l21-3.8l3,16.3
			c0,0.3,0.3,0.5,0.6,0.4c0.3,0,0.5-0.3,0.4-0.6L26,0.4c0-0.1-0.1-0.2-0.2-0.3C25.7,0,25.5,0,25.4,0l-8.3,1.5l0,0L1.5,0
			C1.4,0,1.3,0,1.2,0.1C1.1,0.2,1,0.3,1,0.5l-1,23C0,23.7,0.2,24,0.4,24l5.3,0.7L6,26.6c0,0.1,0.1,0.3,0.2,0.3C6.3,27,6.4,27,6.5,27
			h0.1l9.1-1.6c0.3,0,0.5-0.3,0.4-0.6C16.1,24.6,15.8,24.4,15.5,24.4z M1,23.1L2,1l11.6,1.1L3.4,4l0,0C3.3,4,3.2,4.1,3.1,4.2
			C3,4.3,3,4.4,3,4.6l2.6,19.1L1,23.1z M25.5,23H24v-1.5c0-0.3-0.2-0.5-0.5-0.5S23,21.2,23,21.5V23h-1.5c-0.3,0-0.5,0.2-0.5,0.5
			s0.2,0.5,0.5,0.5H23v1.5c0,0.3,0.2,0.5,0.5,0.5s0.5-0.2,0.5-0.5V24h1.5c0.3,0,0.5-0.2,0.5-0.5S25.8,23,25.5,23z"/>
	</g>
</g>
</svg>
