<svg id="Layer_1" data-name="Layer 1" xmlns="http://www.w3.org/2000/svg" viewBox="0 0 64 64"><defs><style>.cls-1{fill:#14c398;}.cls-2{fill:#fcfcfc;}</style></defs><path class="cls-1" d="M52,63.78a2,2,0,0,1-1.66-1L43,51H6a6.22,6.22,0,0,1-6-6.4V6.18A6.22,6.22,0,0,1,6-.22H58a6.22,6.22,0,0,1,6,6.4v38.4A6.22,6.22,0,0,1,58,51h-2.3L54,62a2.07,2.07,0,0,1-1.55,1.73A1.51,1.51,0,0,1,52,63.78ZM12,6.18" transform="translate(-0.03 0.22)"/><path class="cls-2" d="M50,39.85H14a2.14,2.14,0,0,1,0-4.27H50a2.14,2.14,0,0,1,0,4.27Z" transform="translate(-0.03 0.22)"/><path class="cls-2" d="M50,27.51H14a2.13,2.13,0,0,1,0-4.26H50a2.13,2.13,0,0,1,0,4.26Z" transform="translate(-0.03 0.22)"/><path class="cls-2" d="M50,15.18H14a2.14,2.14,0,0,1,0-4.27H50a2.07,2.07,0,0,1,2,2.14A2.06,2.06,0,0,1,50,15.18Z" transform="translate(-0.03 0.22)"/></svg>