<?xml version="1.0" encoding="utf-8"?>
<!-- Generator: Adobe Illustrator 24.1.0, SVG Export Plug-In . SVG Version: 6.00 Build 0)  -->
<svg version="1.1" id="Layer_1" xmlns="http://www.w3.org/2000/svg" xmlns:xlink="http://www.w3.org/1999/xlink" x="0px" y="0px"
	 viewBox="0 0 24 24" style="enable-background:new 0 0 24 24;" xml:space="preserve">
<style type="text/css">
	.st0{fill:#FFF200;}
	.st1{display:none;}
	.st2{display:inline;}
	.st3{font-family:'MyriadPro-Regular';}
	.st4{font-size:12px;}
</style>
<g id="icons">
	<path class="st0" d="M23.9,9.7c-0.2-0.5-0.6-0.9-1.2-1l-6.5-0.9l-2.9-5.9C13.1,1.3,12.6,1,12,1s-1.1,0.3-1.3,0.8L7.8,7.7L1.2,8.7
		c-0.6,0.1-1,0.5-1.2,1c-0.2,0.5,0,1.1,0.4,1.5l4.7,4.6L4,22.3c-0.1,0.4,0,0.9,0.3,1.2c0.4,0.5,1.2,0.7,1.8,0.4l5.8-3.1l5.8,3.1
		c0.2,0.1,0.4,0.2,0.7,0.2c0.4,0,0.8-0.2,1.1-0.5c0.3-0.3,0.4-0.8,0.3-1.2l-1.1-6.5l4.7-4.6C24,10.8,24.1,10.2,23.9,9.7z M8.6,8.4"
		/>
</g>
<g id="nyt_x5F_exporter_x5F_info" class="st1">
	<text transform="matrix(1 0 0 1 -197 -87)" class="st2 st3 st4">&lt;</text>
	<text transform="matrix(1 0 0 1 -189.848 -87)" class="st2 st3 st4">n</text>
	<text transform="matrix(1 0 0 1 -183.344 -87)" class="st2 st3 st4">yt_p</text>
	<text transform="matrix(1 0 0 1 -160.893 -87)" class="st2 st3 st4">r</text>
	<text transform="matrix(1 0 0 1 -157.088 -87)" class="st2 st3 st4">e</text>
	<text transform="matrix(1 0 0 1 -151.076 -87)" class="st2 st3 st4">f</text>
	<text transform="matrix(1 0 0 1 -147.68 -87)" class="st2 st3 st4">s&gt;</text>
	<text transform="matrix(1 0 0 1 -197 -72.6)" class="st2 st3 st4">  &lt;</text>
	<text transform="matrix(1 0 0 1 -184.76 -72.6)" class="st2 st3 st4">n</text>
	<text transform="matrix(1 0 0 1 -178.256 -72.6)" class="st2 st3 st4">yt_p</text>
	<text transform="matrix(1 0 0 1 -155.805 -72.6)" class="st2 st3 st4">r</text>
	<text transform="matrix(1 0 0 1 -152 -72.6)" class="st2 st3 st4">efix&gt;&lt;/</text>
	<text transform="matrix(1 0 0 1 -115.737 -72.6)" class="st2 st3 st4">n</text>
	<text transform="matrix(1 0 0 1 -109.233 -72.6)" class="st2 st3 st4">yt_p</text>
	<text transform="matrix(1 0 0 1 -86.781 -72.6)" class="st2 st3 st4">r</text>
	<text transform="matrix(1 0 0 1 -82.978 -72.6)" class="st2 st3 st4">efix&gt;</text>
	<text transform="matrix(1 0 0 1 -197 -58.2)" class="st2 st3 st4">  &lt;</text>
	<text transform="matrix(1 0 0 1 -184.76 -58.2)" class="st2 st3 st4">n</text>
	<text transform="matrix(1 0 0 1 -178.256 -58.2)" class="st2 st3 st4">yt_suffix&gt;&lt;/</text>
	<text transform="matrix(1 0 0 1 -117.513 -58.2)" class="st2 st3 st4">n</text>
	<text transform="matrix(1 0 0 1 -111.009 -58.2)" class="st2 st3 st4">yt_suffix&gt;</text>
	<text transform="matrix(1 0 0 1 -197 -43.8)" class="st2 st3 st4">  &lt;</text>
	<text transform="matrix(1 0 0 1 -184.76 -43.8)" class="st2 st3 st4">n</text>
	<text transform="matrix(1 0 0 1 -178.256 -43.8)" class="st2 st3 st4">yt_base_p</text>
	<text transform="matrix(1 0 0 1 -126.429 -43.8)" class="st2 st3 st4">a</text>
	<text transform="matrix(1 0 0 1 -120.693 -43.8)" class="st2 st3 st4">th&gt;~/</text>
	<text transform="matrix(1 0 0 1 -91.642 -43.8)" class="st2 st3 st4">D</text>
	<text transform="matrix(1 0 0 1 -83.602 -43.8)" class="st2 st3 st4">esk</text>
	<text transform="matrix(1 0 0 1 -67.21 -43.8)" class="st2 st3 st4">t</text>
	<text transform="matrix(1 0 0 1 -63.31 -43.8)" class="st2 st3 st4">op/01%20Slimi</text>
	<text transform="matrix(1 0 0 1 12.721 -43.8)" class="st2 st3 st4">c</text>
	<text transform="matrix(1 0 0 1 18.024 -43.8)" class="st2 st3 st4">ons/</text>
	<text transform="matrix(1 0 0 1 40.141 -43.8)" class="st2 st3 st4">P</text>
	<text transform="matrix(1 0 0 1 46.332 -43.8)" class="st2 st3 st4">ng/G</text>
	<text transform="matrix(1 0 0 1 71.568 -43.8)" class="st2 st3 st4">r</text>
	<text transform="matrix(1 0 0 1 75.372 -43.8)" class="st2 st3 st4">ey/384</text>
	<text transform="matrix(1 0 0 1 109.619 -43.8)" class="st2 st3 st4">p</text>
	<text transform="matrix(1 0 0 1 116.279 -43.8)" class="st2 st3 st4">x/</text>
	<text transform="matrix(1 0 0 1 125.951 -43.8)" class="st2 st3 st4">E</text>
	<text transform="matrix(1 0 0 1 131.807 -43.8)" class="st2 st3 st4">c</text>
	<text transform="matrix(1 0 0 1 137.11 -43.8)" class="st2 st3 st4">omme</text>
	<text transform="matrix(1 0 0 1 169.727 -43.8)" class="st2 st3 st4">r</text>
	<text transform="matrix(1 0 0 1 173.53 -43.8)" class="st2 st3 st4">c</text>
	<text transform="matrix(1 0 0 1 178.835 -43.8)" class="st2 st3 st4">e&lt;/</text>
	<text transform="matrix(1 0 0 1 196.114 -43.8)" class="st2 st3 st4">n</text>
	<text transform="matrix(1 0 0 1 202.618 -43.8)" class="st2 st3 st4">yt_base_p</text>
	<text transform="matrix(1 0 0 1 254.445 -43.8)" class="st2 st3 st4">a</text>
	<text transform="matrix(1 0 0 1 260.182 -43.8)" class="st2 st3 st4">th&gt;</text>
	<text transform="matrix(1 0 0 1 -197 -29.4)" class="st2 st3 st4">  &lt;</text>
	<text transform="matrix(1 0 0 1 -184.76 -29.4)" class="st2 st3 st4">n</text>
	<text transform="matrix(1 0 0 1 -178.256 -29.4)" class="st2 st3 st4">yt_scaling&gt;1600&lt;/</text>
	<text transform="matrix(1 0 0 1 -84.67 -29.4)" class="st2 st3 st4">n</text>
	<text transform="matrix(1 0 0 1 -78.166 -29.4)" class="st2 st3 st4">yt_scaling&gt;</text>
	<text transform="matrix(1 0 0 1 -197 -15)" class="st2 st3 st4">  &lt;</text>
	<text transform="matrix(1 0 0 1 -184.76 -15)" class="st2 st3 st4">n</text>
	<text transform="matrix(1 0 0 1 -178.256 -15)" class="st2 st3 st4">yt_t</text>
	<text transform="matrix(1 0 0 1 -158.661 -15)" class="st2 st3 st4">r</text>
	<text transform="matrix(1 0 0 1 -154.796 -15)" class="st2 st3 st4">anspa</text>
	<text transform="matrix(1 0 0 1 -124.989 -15)" class="st2 st3 st4">r</text>
	<text transform="matrix(1 0 0 1 -121.185 -15)" class="st2 st3 st4">en</text>
	<text transform="matrix(1 0 0 1 -108.513 -15)" class="st2 st3 st4">c</text>
	<text transform="matrix(1 0 0 1 -102.921 -15)" class="st2 st3 st4">y&gt;true&lt;/</text>
	<text transform="matrix(1 0 0 1 -58.33 -15)" class="st2 st3 st4">n</text>
	<text transform="matrix(1 0 0 1 -51.826 -15)" class="st2 st3 st4">yt_t</text>
	<text transform="matrix(1 0 0 1 -32.23 -15)" class="st2 st3 st4">r</text>
	<text transform="matrix(1 0 0 1 -28.366 -15)" class="st2 st3 st4">anspa</text>
	<text transform="matrix(1 0 0 1 1.441 -15)" class="st2 st3 st4">r</text>
	<text transform="matrix(1 0 0 1 5.246 -15)" class="st2 st3 st4">en</text>
	<text transform="matrix(1 0 0 1 17.918 -15)" class="st2 st3 st4">c</text>
	<text transform="matrix(1 0 0 1 23.51 -15)" class="st2 st3 st4">y&gt;</text>
	<text transform="matrix(1 0 0 1 -197 -0.6)" class="st2 st3 st4">  &lt;</text>
	<text transform="matrix(1 0 0 1 -184.76 -0.6)" class="st2 st3 st4">n</text>
	<text transform="matrix(1 0 0 1 -178.256 -0.6)" class="st2 st3 st4">yt_embed</text>
	<text transform="matrix(1 0 0 1 -127.005 -0.6)" class="st2 st3 st4">I</text>
	<text transform="matrix(1 0 0 1 -124.017 -0.6)" class="st2 st3 st4">mage&gt;true&lt;/</text>
	<text transform="matrix(1 0 0 1 -56.566 -0.6)" class="st2 st3 st4">n</text>
	<text transform="matrix(1 0 0 1 -50.062 -0.6)" class="st2 st3 st4">yt_embed</text>
	<text transform="matrix(1 0 0 1 1.189 -0.6)" class="st2 st3 st4">I</text>
	<text transform="matrix(1 0 0 1 4.178 -0.6)" class="st2 st3 st4">mage&gt;</text>
	<text transform="matrix(1 0 0 1 -197 13.8)" class="st2 st3 st4">  &lt;</text>
	<text transform="matrix(1 0 0 1 -184.76 13.8)" class="st2 st3 st4">n</text>
	<text transform="matrix(1 0 0 1 -178.256 13.8)" class="st2 st3 st4">yt_embed</text>
	<text transform="matrix(1 0 0 1 -127.005 13.8)" class="st2 st3 st4">F</text>
	<text transform="matrix(1 0 0 1 -121.533 13.8)" class="st2 st3 st4">o</text>
	<text transform="matrix(1 0 0 1 -114.945 13.8)" class="st2 st3 st4">n</text>
	<text transform="matrix(1 0 0 1 -108.333 13.8)" class="st2 st3 st4">t&gt;true&lt;/</text>
	<text transform="matrix(1 0 0 1 -65.421 13.8)" class="st2 st3 st4">n</text>
	<text transform="matrix(1 0 0 1 -58.917 13.8)" class="st2 st3 st4">yt_embed</text>
	<text transform="matrix(1 0 0 1 -7.666 13.8)" class="st2 st3 st4">F</text>
	<text transform="matrix(1 0 0 1 -2.194 13.8)" class="st2 st3 st4">o</text>
	<text transform="matrix(1 0 0 1 4.395 13.8)" class="st2 st3 st4">n</text>
	<text transform="matrix(1 0 0 1 11.006 13.8)" class="st2 st3 st4">t&gt;</text>
	<text transform="matrix(1 0 0 1 -197 28.2)" class="st2 st3 st4">  &lt;</text>
	<text transform="matrix(1 0 0 1 -184.76 28.2)" class="st2 st3 st4">n</text>
	<text transform="matrix(1 0 0 1 -178.256 28.2)" class="st2 st3 st4">yt_t</text>
	<text transform="matrix(1 0 0 1 -158.661 28.2)" class="st2 st3 st4">r</text>
	<text transform="matrix(1 0 0 1 -154.688 28.2)" class="st2 st3 st4">im</text>
	<text transform="matrix(1 0 0 1 -141.873 28.2)" class="st2 st3 st4">E</text>
	<text transform="matrix(1 0 0 1 -136.017 28.2)" class="st2 st3 st4">dges&gt;false&lt;/</text>
	<text transform="matrix(1 0 0 1 -70.474 28.2)" class="st2 st3 st4">n</text>
	<text transform="matrix(1 0 0 1 -63.97 28.2)" class="st2 st3 st4">yt_t</text>
	<text transform="matrix(1 0 0 1 -44.374 28.2)" class="st2 st3 st4">r</text>
	<text transform="matrix(1 0 0 1 -40.402 28.2)" class="st2 st3 st4">im</text>
	<text transform="matrix(1 0 0 1 -27.586 28.2)" class="st2 st3 st4">E</text>
	<text transform="matrix(1 0 0 1 -21.73 28.2)" class="st2 st3 st4">dges&gt;</text>
	<text transform="matrix(1 0 0 1 -197 42.6)" class="st2 st3 st4">  &lt;</text>
	<text transform="matrix(1 0 0 1 -184.76 42.6)" class="st2 st3 st4">n</text>
	<text transform="matrix(1 0 0 1 -178.256 42.6)" class="st2 st3 st4">yt_inner</text>
	<text transform="matrix(1 0 0 1 -136.569 42.6)" class="st2 st3 st4">P</text>
	<text transform="matrix(1 0 0 1 -130.497 42.6)" class="st2 st3 st4">adding&gt;false&lt;/</text>
	<text transform="matrix(1 0 0 1 -53.698 42.6)" class="st2 st3 st4">n</text>
	<text transform="matrix(1 0 0 1 -47.194 42.6)" class="st2 st3 st4">yt_inner</text>
	<text transform="matrix(1 0 0 1 -5.506 42.6)" class="st2 st3 st4">P</text>
	<text transform="matrix(1 0 0 1 0.565 42.6)" class="st2 st3 st4">adding&gt;</text>
	<text transform="matrix(1 0 0 1 -197 57)" class="st2 st3 st4">  &lt;</text>
	<text transform="matrix(1 0 0 1 -184.76 57)" class="st2 st3 st4">n</text>
	<text transform="matrix(1 0 0 1 -178.256 57)" class="st2 st3 st4">yt_</text>
	<text transform="matrix(1 0 0 1 -162.632 57)" class="st2 st3 st4">f</text>
	<text transform="matrix(1 0 0 1 -159.284 57)" class="st2 st3 st4">o</text>
	<text transform="matrix(1 0 0 1 -152.696 57)" class="st2 st3 st4">r</text>
	<text transform="matrix(1 0 0 1 -148.725 57)" class="st2 st3 st4">m</text>
	<text transform="matrix(1 0 0 1 -138.716 57)" class="st2 st3 st4">a</text>
	<text transform="matrix(1 0 0 1 -132.98 57)" class="st2 st3 st4">t&gt;PNG 24&lt;/</text>
	<text transform="matrix(1 0 0 1 -73.702 57)" class="st2 st3 st4">n</text>
	<text transform="matrix(1 0 0 1 -67.197 57)" class="st2 st3 st4">yt_</text>
	<text transform="matrix(1 0 0 1 -51.574 57)" class="st2 st3 st4">f</text>
	<text transform="matrix(1 0 0 1 -48.226 57)" class="st2 st3 st4">o</text>
	<text transform="matrix(1 0 0 1 -41.638 57)" class="st2 st3 st4">r</text>
	<text transform="matrix(1 0 0 1 -37.666 57)" class="st2 st3 st4">m</text>
	<text transform="matrix(1 0 0 1 -27.658 57)" class="st2 st3 st4">a</text>
	<text transform="matrix(1 0 0 1 -21.922 57)" class="st2 st3 st4">t&gt;</text>
	<text transform="matrix(1 0 0 1 -197 71.4)" class="st2 st3 st4">  &lt;</text>
	<text transform="matrix(1 0 0 1 -184.76 71.4)" class="st2 st3 st4">n</text>
	<text transform="matrix(1 0 0 1 -178.256 71.4)" class="st2 st3 st4">yt_a</text>
	<text transform="matrix(1 0 0 1 -156.849 71.4)" class="st2 st3 st4">r</text>
	<text transform="matrix(1 0 0 1 -152.637 71.4)" class="st2 st3 st4">tboa</text>
	<text transform="matrix(1 0 0 1 -129.465 71.4)" class="st2 st3 st4">r</text>
	<text transform="matrix(1 0 0 1 -125.661 71.4)" class="st2 st3 st4">ds&gt;all&lt;/</text>
	<text transform="matrix(1 0 0 1 -84.273 71.4)" class="st2 st3 st4">n</text>
	<text transform="matrix(1 0 0 1 -77.77 71.4)" class="st2 st3 st4">yt_a</text>
	<text transform="matrix(1 0 0 1 -56.362 71.4)" class="st2 st3 st4">r</text>
	<text transform="matrix(1 0 0 1 -52.15 71.4)" class="st2 st3 st4">tboa</text>
	<text transform="matrix(1 0 0 1 -28.979 71.4)" class="st2 st3 st4">r</text>
	<text transform="matrix(1 0 0 1 -25.174 71.4)" class="st2 st3 st4">ds&gt;</text>
	<text transform="matrix(1 0 0 1 -197 85.8)" class="st2 st3 st4">  &lt;</text>
	<text transform="matrix(1 0 0 1 -184.76 85.8)" class="st2 st3 st4">n</text>
	<text transform="matrix(1 0 0 1 -178.256 85.8)" class="st2 st3 st4">yt_l</text>
	<text transform="matrix(1 0 0 1 -159.8 85.8)" class="st2 st3 st4">a</text>
	<text transform="matrix(1 0 0 1 -154.112 85.8)" class="st2 st3 st4">y</text>
	<text transform="matrix(1 0 0 1 -148.581 85.8)" class="st2 st3 st4">ers&gt;none&lt;/</text>
	<text transform="matrix(1 0 0 1 -89.553 85.8)" class="st2 st3 st4">n</text>
	<text transform="matrix(1 0 0 1 -83.049 85.8)" class="st2 st3 st4">yt_l</text>
	<text transform="matrix(1 0 0 1 -64.594 85.8)" class="st2 st3 st4">a</text>
	<text transform="matrix(1 0 0 1 -58.905 85.8)" class="st2 st3 st4">y</text>
	<text transform="matrix(1 0 0 1 -53.374 85.8)" class="st2 st3 st4">ers&gt;</text>
	<text transform="matrix(1 0 0 1 -197 100.2)" class="st2 st3 st4">  &lt;</text>
	<text transform="matrix(1 0 0 1 -184.76 100.2)" class="st2 st3 st4">n</text>
	<text transform="matrix(1 0 0 1 -178.256 100.2)" class="st2 st3 st4">yt_</text>
	<text transform="matrix(1 0 0 1 -162.632 100.2)" class="st2 st3 st4">e</text>
	<text transform="matrix(1 0 0 1 -156.656 100.2)" class="st2 st3 st4">xpo</text>
	<text transform="matrix(1 0 0 1 -137.685 100.2)" class="st2 st3 st4">r</text>
	<text transform="matrix(1 0 0 1 -133.473 100.2)" class="st2 st3 st4">t</text>
	<text transform="matrix(1 0 0 1 -129.501 100.2)" class="st2 st3 st4">A</text>
	<text transform="matrix(1 0 0 1 -122.193 100.2)" class="st2 st3 st4">r</text>
	<text transform="matrix(1 0 0 1 -117.981 100.2)" class="st2 st3 st4">tboa</text>
	<text transform="matrix(1 0 0 1 -94.81 100.2)" class="st2 st3 st4">r</text>
	<text transform="matrix(1 0 0 1 -91.005 100.2)" class="st2 st3 st4">ds&gt;true&lt;/</text>
	<text transform="matrix(1 0 0 1 -40.546 100.2)" class="st2 st3 st4">n</text>
	<text transform="matrix(1 0 0 1 -34.042 100.2)" class="st2 st3 st4">yt_</text>
	<text transform="matrix(1 0 0 1 -18.418 100.2)" class="st2 st3 st4">e</text>
	<text transform="matrix(1 0 0 1 -12.442 100.2)" class="st2 st3 st4">xpo</text>
	<text transform="matrix(1 0 0 1 6.529 100.2)" class="st2 st3 st4">r</text>
	<text transform="matrix(1 0 0 1 10.741 100.2)" class="st2 st3 st4">t</text>
	<text transform="matrix(1 0 0 1 14.713 100.2)" class="st2 st3 st4">A</text>
	<text transform="matrix(1 0 0 1 22.021 100.2)" class="st2 st3 st4">r</text>
	<text transform="matrix(1 0 0 1 26.233 100.2)" class="st2 st3 st4">tboa</text>
	<text transform="matrix(1 0 0 1 49.405 100.2)" class="st2 st3 st4">r</text>
	<text transform="matrix(1 0 0 1 53.209 100.2)" class="st2 st3 st4">ds&gt;</text>
	<text transform="matrix(1 0 0 1 -197 114.6)" class="st2 st3 st4">  &lt;</text>
	<text transform="matrix(1 0 0 1 -184.76 114.6)" class="st2 st3 st4">n</text>
	<text transform="matrix(1 0 0 1 -178.256 114.6)" class="st2 st3 st4">yt_i</text>
	<text transform="matrix(1 0 0 1 -159.824 114.6)" class="st2 st3 st4">g</text>
	<text transform="matrix(1 0 0 1 -153.188 114.6)" class="st2 st3 st4">no</text>
	<text transform="matrix(1 0 0 1 -139.94 114.6)" class="st2 st3 st4">r</text>
	<text transform="matrix(1 0 0 1 -136.137 114.6)" class="st2 st3 st4">e</text>
	<text transform="matrix(1 0 0 1 -130.125 114.6)" class="st2 st3 st4">W</text>
	<text transform="matrix(1 0 0 1 -120.369 114.6)" class="st2 st3 st4">a</text>
	<text transform="matrix(1 0 0 1 -114.585 114.6)" class="st2 st3 st4">r</text>
	<text transform="matrix(1 0 0 1 -110.613 114.6)" class="st2 st3 st4">nings&gt;true&lt;/</text>
	<text transform="matrix(1 0 0 1 -44.086 114.6)" class="st2 st3 st4">n</text>
	<text transform="matrix(1 0 0 1 -37.582 114.6)" class="st2 st3 st4">yt_i</text>
	<text transform="matrix(1 0 0 1 -19.15 114.6)" class="st2 st3 st4">g</text>
	<text transform="matrix(1 0 0 1 -12.514 114.6)" class="st2 st3 st4">no</text>
	<text transform="matrix(1 0 0 1 0.733 114.6)" class="st2 st3 st4">r</text>
	<text transform="matrix(1 0 0 1 4.538 114.6)" class="st2 st3 st4">e</text>
	<text transform="matrix(1 0 0 1 10.55 114.6)" class="st2 st3 st4">W</text>
	<text transform="matrix(1 0 0 1 20.306 114.6)" class="st2 st3 st4">a</text>
	<text transform="matrix(1 0 0 1 26.09 114.6)" class="st2 st3 st4">r</text>
	<text transform="matrix(1 0 0 1 30.062 114.6)" class="st2 st3 st4">nings&gt;</text>
	<text transform="matrix(1 0 0 1 -197 129)" class="st2 st3 st4">&lt;/</text>
	<text transform="matrix(1 0 0 1 -185.732 129)" class="st2 st3 st4">n</text>
	<text transform="matrix(1 0 0 1 -179.228 129)" class="st2 st3 st4">yt_p</text>
	<text transform="matrix(1 0 0 1 -156.776 129)" class="st2 st3 st4">r</text>
	<text transform="matrix(1 0 0 1 -152.973 129)" class="st2 st3 st4">e</text>
	<text transform="matrix(1 0 0 1 -146.96 129)" class="st2 st3 st4">f</text>
	<text transform="matrix(1 0 0 1 -143.564 129)" class="st2 st3 st4">s&gt;</text>
</g>
</svg>
